<?xml version="1.0" encoding="UTF-8" standalone="no"?>
<!DOCTYPE svg PUBLIC "-//W3C//DTD SVG 1.0//EN"
"http://www.w3.org/TR/2001/REC-SVG-20010904/DTD/svg10.dtd">
<!-- Created with Inkscape (http://www.inkscape.org/) -->
<svg
   id="svg1"
   sodipodi:version="0.32"
   inkscape:version="0.39"
   xmlns="http://www.w3.org/2000/svg"
   xmlns:sodipodi="http://sodipodi.sourceforge.net/DTD/sodipodi-0.dtd"
   xmlns:inkscape="http://www.inkscape.org/namespaces/inkscape"
   xmlns:xlink="http://www.w3.org/1999/xlink"
   xmlns:rdf="http://www.w3.org/1999/02/22-rdf-syntax-ns#"
   xmlns:cc="http://web.resource.org/cc/"
   xmlns:dc="http://purl.org/dc/elements/1.1/"
   width="210mm"
   height="297mm"
   sodipodi:docbase="/home/reformist/d/tmp"
   sodipodi:docname="gnomewotdapplet.svg">
  <defs
     id="defs3">
    <linearGradient
       id="linearGradient1534">
      <stop
         style="stop-color:#d9e8d9;stop-opacity:0.97979796;"
         offset="0.0000000"
         id="stop1535" />
      <stop
         style="stop-color:#bacdbb;stop-opacity:1.0000000;"
         offset="1.0000000"
         id="stop1536" />
    </linearGradient>
    <linearGradient
       inkscape:collect="always"
       xlink:href="#linearGradient1534"
       id="linearGradient1538"
       x1="0.0000000"
       y1="0.50000000"
       x2="1.0000000"
       y2="0.50000000" />
  </defs>
  <sodipodi:namedview
     id="base"
     pagecolor="#ffffff"
     bordercolor="#666666"
     borderopacity="1.0"
     inkscape:pageopacity="0.0"
     inkscape:pageshadow="2"
     inkscape:zoom="0.61732963"
     inkscape:cx="297.63780"
     inkscape:cy="619.94881"
     inkscape:window-width="1064"
     inkscape:window-height="899"
     showguides="true"
     inkscape:guide-bbox="true"
     inkscape:window-x="32"
     inkscape:window-y="0">
    <sodipodi:guide
       orientation="horizontal"
       position="366.45390"
       id="guide908" />
    <sodipodi:guide
       orientation="horizontal"
       position="708.47755"
       id="guide910" />
    <sodipodi:guide
       orientation="vertical"
       position="299.67786"
       id="guide911" />
  </sodipodi:namedview>
  <metadata
     id="metadata4">
    <rdf:RDF
       id="RDF5">
      <cc:Work
         rdf:about=""
         id="Work6">
        <dc:format
           id="format7">image/svg+xml</dc:format>
        <dc:type
           id="type9"
           rdf:resource="http://purl.org/dc/dcmitype/StillImage" />
      </cc:Work>
    </rdf:RDF>
  </metadata>
  <path
     style="fill:url(#linearGradient1538);fill-opacity:0.75000000;fill-rule:evenodd;stroke:#000300;stroke-width:7.5000000;stroke-linecap:butt;stroke-linejoin:miter;stroke-opacity:1.0000000;stroke-miterlimit:4.0000000;stroke-dasharray:none;"
     d="M 95.245113,178.82836 L 95.245113,594.29481 L 374.59732,669.14701 L 638.71570,598.37670 L 638.71570,166.76525 L 374.59732,237.53555 L 95.245113,178.82836 z "
     id="path912" />
  <path
     style="fill:#efefef;fill-opacity:1.0000000;fill-rule:evenodd;stroke:#000300;stroke-width:7.5000000;stroke-linecap:butt;stroke-linejoin:miter;stroke-miterlimit:4.0000000;stroke-opacity:1.0000000;stroke-dasharray:none;"
     d="M 124.99710,206.77660 L 124.99710,579.14396 L 375.37023,646.23123 L 612.08985,582.80239 L 612.08985,195.96489 L 375.37023,259.39371 L 124.99710,206.77660 z "
     id="path1543" />
  <path
     style="fill:none;fill-opacity:0.75000000;fill-rule:evenodd;stroke:#010101;stroke-width:7.5000000;stroke-linecap:round;stroke-linejoin:round;stroke-opacity:0.21787709;stroke-miterlimit:4.0000000;stroke-dasharray:none;"
     d="M 374.59732,244.12774 L 374.59732,655.37045 L 374.59732,244.12774 z "
     id="path1545" />
  <path
     style="fill:none;fill-opacity:0.75000000;fill-rule:evenodd;stroke:#000000;stroke-width:6.2500000;stroke-linecap:butt;stroke-linejoin:miter;stroke-opacity:1.0000000;stroke-miterlimit:4.0000000;stroke-dasharray:none;"
     d="M 393.75000,297.36218 C 393.78422,297.32796 411.89171,288.61218 417.50000,288.61218 C 423.65554,288.61218 430.41889,286.11218 436.25000,286.11218 C 443.06573,286.11218 451.37077,285.99141 456.25000,281.11218 C 461.09875,276.26344 469.53147,277.36218 476.25000,277.36218 C 483.19431,277.36218 487.65521,280.95697 493.75000,274.86218 C 499.38621,274.86218 505.46065,265.32283 510.00000,269.86218 C 514.28906,274.15125 526.25000,280.41267 526.25000,268.61218 C 526.25000,264.65439 526.78111,250.39330 533.75000,257.36218 C 539.80018,257.36218 544.67202,267.36218 551.25000,267.36218 C 559.74214,267.36218 561.17336,268.68882 567.50000,262.36218 C 573.10351,256.75867 577.10311,256.11218 585.00000,256.11218 C 586.25000,256.11218 587.50000,256.11218 588.75000,256.11218"
     id="path1554" />
  <path
     style="fill:none;fill-opacity:0.75000000;fill-rule:evenodd;stroke:#000000;stroke-width:6.2500000;stroke-linecap:butt;stroke-linejoin:miter;stroke-opacity:1.0000000;stroke-miterlimit:4.0000000;stroke-dasharray:none;"
     d="M 401.25000,341.11218 C 406.63469,341.11218 416.54129,335.15347 423.75000,342.36218 C 430.10219,348.71437 440.34234,350.76984 447.50000,343.61218 C 453.66780,343.61218 459.37788,341.11218 466.25000,341.11218 C 471.51166,335.85052 479.07345,326.11218 486.25000,326.11218 C 493.48009,326.11218 501.11486,334.86218 511.25000,334.86218 C 518.93090,334.86218 525.98848,327.36218 532.50000,327.36218 C 539.34490,327.36218 541.96544,317.36218 550.00000,317.36218 C 555.28135,312.08083 564.84545,316.11218 571.25000,316.11218 C 573.74449,316.11218 575.00551,313.61218 577.50000,313.61218"
     id="path1555" />
  <path
     style="fill:none;fill-opacity:0.75000000;fill-rule:evenodd;stroke:#000000;stroke-width:6.2500000;stroke-linecap:butt;stroke-linejoin:miter;stroke-opacity:1.0000000;stroke-miterlimit:4.0000000;stroke-dasharray:none;"
     d="M 406.25000,416.11218 C 414.29717,416.11218 423.05979,413.05239 428.75000,407.36218 C 435.15220,407.36218 442.83461,406.11218 450.00000,406.11218 C 463.28798,406.11218 470.32685,386.11218 478.75000,386.11218 C 485.41667,386.11218 492.08333,386.11218 498.75000,386.11218 C 506.75653,386.11218 511.74420,381.11218 518.75000,381.11218 C 523.35174,381.11218 532.37733,384.98486 536.25000,381.11218 C 542.31241,375.04977 548.83352,369.94570 555.00000,376.11218 C 559.44757,380.55975 566.82821,367.36218 572.50000,367.36218 C 573.33333,368.19552 574.16667,369.02885 575.00000,369.86218"
     id="path1556" />
  <path
     style="fill:none;fill-opacity:0.75000000;fill-rule:evenodd;stroke:#000000;stroke-width:6.2500000;stroke-linecap:butt;stroke-linejoin:miter;stroke-opacity:1.0000000;stroke-miterlimit:4.0000000;stroke-dasharray:none;"
     d="M 408.75000,466.11218 C 420.78021,466.11218 440.45536,452.36218 456.25000,452.36218 C 467.27008,452.36218 473.16634,481.69584 485.00000,469.86218 C 488.42897,463.00424 493.51711,455.09508 498.75000,449.86218 C 507.01063,441.60155 515.31761,455.79457 522.50000,448.61218 C 536.18960,434.92258 534.12611,427.73829 550.00000,443.61218 C 550.00000,443.62075 561.78593,439.86218 566.25000,439.86218 C 576.12555,439.86218 581.25000,432.52079 581.25000,423.61218"
     id="path1557" />
  <path
     style="fill:none;fill-opacity:0.75000000;fill-rule:evenodd;stroke:#000000;stroke-width:6.2500000;stroke-linecap:butt;stroke-linejoin:miter;stroke-opacity:1.0000000;stroke-miterlimit:4.0000000;stroke-dasharray:none;"
     d="M 410.00000,519.86218 C 421.97132,519.86218 433.37526,503.61218 448.75000,503.61218 C 459.38107,514.24325 463.13648,514.22570 475.00000,502.36218 C 486.85851,502.36218 494.62384,479.48602 511.25000,496.11218 C 528.46793,504.72115 525.00665,511.10553 537.50000,498.61218 C 545.61436,490.49782 550.08364,493.69582 557.50000,501.11218 C 565.21437,508.82655 564.17618,490.68600 566.25000,488.61218 C 566.25000,480.87634 577.06112,492.36218 578.75000,492.36218"
     id="path1558" />
  <path
     style="fill:none;fill-opacity:0.75000000;fill-rule:evenodd;stroke:#000000;stroke-width:6.2500000;stroke-linecap:butt;stroke-linejoin:miter;stroke-opacity:1.0000000;stroke-miterlimit:4.0000000;stroke-dasharray:none;"
     d="M 421.25000,572.36218 C 431.58086,562.03133 438.37171,528.23389 460.00000,549.86218 C 467.33010,557.19228 475.33435,566.11218 485.00000,566.11218 C 494.71684,561.25376 501.18983,554.80201 510.00000,563.61218 C 518.10781,563.61218 522.69277,553.61218 530.00000,553.61218 C 536.39553,553.61218 543.85087,556.11218 548.75000,556.11218 C 556.11644,556.11218 563.75000,551.19464 563.75000,543.61218 C 567.66052,539.70167 572.05294,538.16512 576.25000,542.36218"
     id="path1559" />
  <path
     style="fill:none;fill-opacity:0.75000000;fill-rule:evenodd;stroke:#000000;stroke-width:6.2500000;stroke-linecap:butt;stroke-linejoin:miter;stroke-miterlimit:4.0000000;stroke-opacity:1.0000000;"
     d="M 147.50000,533.64025 C 147.53422,533.67447 165.64171,542.39025 171.25000,542.39025 C 177.40554,542.39025 184.16889,544.89025 190.00000,544.89025 C 196.81573,544.89025 205.12077,545.01102 210.00000,549.89025 C 214.84875,554.73899 223.28147,553.64025 230.00000,553.64025 C 236.94431,553.64025 241.40521,550.04546 247.50000,556.14025 C 253.13621,556.14025 259.21065,565.67960 263.75000,561.14025 C 268.03906,556.85118 280.00000,550.58976 280.00000,562.39025 C 280.00000,566.34804 280.53111,580.60913 287.50000,573.64025 C 293.55018,573.64025 298.42202,563.64025 305.00000,563.64025 C 313.49214,563.64025 314.92336,562.31361 321.25000,568.64025 C 326.85351,574.24376 330.85311,574.89025 338.75000,574.89025 C 340.00000,574.89025 341.25000,574.89025 342.50000,574.89025"
     id="path1560" />
  <path
     style="fill:none;fill-opacity:0.75000000;fill-rule:evenodd;stroke:#000000;stroke-width:6.2500000;stroke-linecap:butt;stroke-linejoin:miter;stroke-miterlimit:4.0000000;stroke-opacity:1.0000000;"
     d="M 155.00000,489.89025 C 160.38469,489.89025 170.29129,495.84896 177.50000,488.64025 C 183.85219,482.28806 194.09234,480.23259 201.25000,487.39025 C 207.41780,487.39025 213.12788,489.89025 220.00000,489.89025 C 225.26166,495.15191 232.82345,504.89025 240.00000,504.89025 C 247.23009,504.89025 254.86486,496.14025 265.00000,496.14025 C 272.68090,496.14025 279.73848,503.64025 286.25000,503.64025 C 293.09490,503.64025 295.71544,513.64025 303.75000,513.64025 C 309.03135,518.92160 318.59545,514.89025 325.00000,514.89025 C 327.49449,514.89025 328.75551,517.39025 331.25000,517.39025"
     id="path1561" />
  <path
     style="fill:none;fill-opacity:0.75000000;fill-rule:evenodd;stroke:#000000;stroke-width:6.2500000;stroke-linecap:butt;stroke-linejoin:miter;stroke-miterlimit:4.0000000;stroke-opacity:1.0000000;"
     d="M 160.00000,414.89025 C 168.04717,414.89025 176.80979,417.95004 182.50000,423.64025 C 188.90220,423.64025 196.58461,424.89025 203.75000,424.89025 C 217.03798,424.89025 224.07685,444.89025 232.50000,444.89025 C 239.16667,444.89025 245.83333,444.89025 252.50000,444.89025 C 260.50653,444.89025 265.49420,449.89025 272.50000,449.89025 C 277.10174,449.89025 286.12733,446.01757 290.00000,449.89025 C 296.06241,455.95266 302.58352,461.05673 308.75000,454.89025 C 313.19757,450.44268 320.57821,463.64025 326.25000,463.64025 C 327.08333,462.80691 327.91667,461.97358 328.75000,461.14025"
     id="path1562" />
  <path
     style="fill:none;fill-opacity:0.75000000;fill-rule:evenodd;stroke:#000000;stroke-width:6.2500000;stroke-linecap:butt;stroke-linejoin:miter;stroke-miterlimit:4.0000000;stroke-opacity:1.0000000;"
     d="M 162.50000,364.89025 C 174.53021,364.89025 194.20536,378.64025 210.00000,378.64025 C 221.02008,378.64025 226.91634,349.30659 238.75000,361.14025 C 242.17897,367.99819 247.26711,375.90735 252.50000,381.14025 C 260.76063,389.40088 269.06761,375.20786 276.25000,382.39025 C 289.93960,396.07985 287.87611,403.26414 303.75000,387.39025 C 303.75000,387.38168 315.53593,391.14025 320.00000,391.14025 C 329.87555,391.14025 335.00000,398.48164 335.00000,407.39025"
     id="path1563" />
  <path
     style="fill:none;fill-opacity:0.75000000;fill-rule:evenodd;stroke:#000000;stroke-width:6.2500000;stroke-linecap:butt;stroke-linejoin:miter;stroke-miterlimit:4.0000000;stroke-opacity:1.0000000;"
     d="M 163.75000,311.14025 C 175.72132,311.14025 187.12526,327.39025 202.50000,327.39025 C 213.13107,316.75918 216.88648,316.77673 228.75000,328.64025 C 240.60851,328.64025 248.37384,351.51641 265.00000,334.89025 C 282.21793,326.28128 278.75665,319.89690 291.25000,332.39025 C 299.36436,340.50461 303.83364,337.30661 311.25000,329.89025 C 318.96437,322.17588 317.92618,340.31643 320.00000,342.39025 C 320.00000,350.12609 330.81112,338.64025 332.50000,338.64025"
     id="path1564" />
  <path
     style="fill:none;fill-opacity:0.75000000;fill-rule:evenodd;stroke:#000000;stroke-width:6.2500000;stroke-linecap:butt;stroke-linejoin:miter;stroke-miterlimit:4.0000000;stroke-opacity:1.0000000;"
     d="M 175.00000,258.64025 C 185.33086,268.97110 192.12171,302.76854 213.75000,281.14025 C 221.08010,273.81015 229.08435,264.89025 238.75000,264.89025 C 248.46684,269.74867 254.93983,276.20042 263.75000,267.39025 C 271.85781,267.39025 276.44277,277.39025 283.75000,277.39025 C 290.14553,277.39025 297.60087,274.89025 302.50000,274.89025 C 309.86644,274.89025 317.50000,279.80779 317.50000,287.39025 C 321.41052,291.30076 325.80294,292.83731 330.00000,288.64025"
     id="path1565" />
  <path
     style="fill:#cfd9db;fill-opacity:0.86274511;fill-rule:evenodd;stroke:#000000;stroke-width:7.5000000;stroke-linecap:butt;stroke-linejoin:miter;stroke-opacity:1.0000000;stroke-miterlimit:4.0000000;stroke-dasharray:none;"
     d="M 601.25000,322.37500 C 492.92000,322.37500 405.00000,410.29500 405.00000,518.62500 C 405.00000,626.95500 492.92000,714.87500 601.25000,714.87500 C 623.04009,714.87500 643.94213,711.15874 663.53125,704.59375 C 566.07027,702.51751 487.59375,625.13345 487.59375,529.87500 C 487.59377,433.31317 568.18913,354.93750 667.50000,354.93750 C 685.70470,354.93750 703.24648,357.63511 719.81250,362.53125 C 686.84351,337.43963 645.84776,322.37500 601.25000,322.37500 z "
     id="path2473" />
  <text
     xml:space="preserve"
     style="font-size:12.000000;font-style:normal;font-weight:normal;fill:#000000;fill-opacity:1.0000000;stroke:none;stroke-width:1.0000000pt;stroke-linecap:butt;stroke-linejoin:miter;stroke-opacity:1.0000000;font-family:Bitstream Vera Sans;"
     x="196.25000"
     y="64.862183"
     id="text2476"><tspan
       id="tspan2477"></tspan></text>
  <text
     xml:space="preserve"
     style="font-size:72.000000;font-style:normal;font-variant:normal;font-weight:bold;font-stretch:normal;fill:#000000;fill-opacity:0.12849160;stroke:none;stroke-width:1.0000000pt;stroke-linecap:butt;stroke-linejoin:miter;stroke-opacity:1.0000000;font-family:Bitstream Vera Sans;text-anchor:start;writing-mode:lr;"
     x="72.025192"
     y="102.51931"
     id="text2485"
     sodipodi:linespacing="100%"
     transform="scale(1.610654,1.610654)"><tspan
       id="tspan2486">GNOME</tspan></text>
  <path
     style="font-size:40.000000;font-style:normal;font-variant:normal;font-weight:normal;font-stretch:normal;fill:#000000;fill-opacity:1.0000000;stroke:none;stroke-width:1.0000000pt;stroke-linecap:butt;stroke-linejoin:miter;stroke-opacity:1.0000000;font-family:Bitstream Vera Sans;text-anchor:start;writing-mode:lr;"
     d="M 607.58197,133.58754 L 607.58197,140.46901 L 615.78346,140.46901 L 615.78346,143.56350 L 607.58197,143.56350 L 607.58197,156.72052 C 607.58196,158.69696 607.84884,159.96650 608.38264,160.52913 C 608.93084,161.09176 610.03447,161.37308 611.69353,161.37307 L 615.78346,161.37307 L 615.78346,164.70562 L 611.69353,164.70562 C 608.62067,164.70562 606.49997,164.13576 605.33143,162.99607 C 604.16286,161.84194 603.57859,159.75010 603.57859,156.72052 L 603.57859,143.56350 L 600.65722,143.56350 L 600.65722,140.46901 L 603.57859,140.46901 L 603.57859,133.58754 L 607.58197,133.58754 M 597.10829,151.59188 L 597.10829,153.53946 L 578.80099,153.53946 C 578.97411,156.28052 579.79641,158.37237 581.26794,159.81501 C 582.75385,161.24324 584.81685,161.95736 587.45692,161.95736 C 588.98613,161.95736 590.46484,161.76981 591.89309,161.39472 C 593.33572,161.01963 594.76394,160.45700 596.17778,159.70681 L 596.17778,163.47215 C 594.74952,164.07806 593.28523,164.53971 591.78489,164.85710 C 590.28451,165.17447 588.76251,165.33316 587.21889,165.33316 C 583.35256,165.33316 580.28692,164.20790 578.02196,161.95736 C 575.77141,159.70681 574.64614,156.66282 574.64614,152.82535 C 574.64614,148.85806 575.71370,145.71308 577.84884,143.39039 C 579.99839,141.05330 582.89091,139.88476 586.52641,139.88473 C 589.78679,139.88476 592.36193,140.93790 594.25183,143.04415 C 596.15611,145.13601 597.10826,147.98526 597.10829,151.59188 M 593.12656,150.42332 C 593.09768,148.24493 592.48456,146.50653 591.28717,145.20813 C 590.10418,143.90975 588.53168,143.26057 586.56969,143.26054 C 584.34799,143.26057 582.56631,143.88811 581.22465,145.14321 C 579.89740,146.39834 579.13280,148.16559 578.93083,150.44496 L 593.12656,150.42332 M 564.08590,131.03404 L 568.06763,131.03404 L 568.06763,164.70562 L 564.08590,164.70562 L 564.08590,131.03404 M 539.80602,161.07012 L 539.80602,173.92418 L 535.80265,173.92418 L 535.80265,140.46901 L 539.80602,140.46901 L 539.80602,144.14778 C 540.64275,142.70515 541.69589,141.63758 542.96543,140.94508 C 544.24939,140.23821 545.77860,139.88476 547.55308,139.88473 C 550.49608,139.88476 552.88367,141.05330 554.71586,143.39039 C 556.56244,145.72750 557.48574,148.80035 557.48576,152.60895 C 557.48574,156.41757 556.56244,159.49042 554.71586,161.82751 C 552.88367,164.16462 550.49608,165.33316 547.55308,165.33316 C 545.77860,165.33316 544.24939,164.98693 542.96543,164.29445 C 541.69589,163.58755 540.64275,162.51278 539.80602,161.07012 M 553.35255,152.60895 C 553.35253,149.68037 552.74662,147.38655 551.53481,145.72748 C 550.33738,144.05402 548.68555,143.21729 546.57928,143.21727 C 544.47300,143.21729 542.81394,144.05402 541.60212,145.72748 C 540.40472,147.38655 539.80601,149.68037 539.80602,152.60895 C 539.80601,155.53755 540.40472,157.83858 541.60212,159.51206 C 542.81394,161.17111 544.47300,162.00063 546.57928,162.00063 C 548.68555,162.00063 550.33738,161.17111 551.53481,159.51206 C 552.74662,157.83858 553.35253,155.53755 553.35255,152.60895 M 511.67425,161.07012 L 511.67425,173.92418 L 507.67087,173.92418 L 507.67087,140.46901 L 511.67425,140.46901 L 511.67425,144.14778 C 512.51098,142.70515 513.56412,141.63758 514.83366,140.94508 C 516.11761,140.23821 517.64682,139.88476 519.42130,139.88473 C 522.36430,139.88476 524.75189,141.05330 526.58409,143.39039 C 528.43066,145.72750 529.35395,148.80035 529.35399,152.60895 C 529.35395,156.41757 528.43066,159.49042 526.58409,161.82751 C 524.75189,164.16462 522.36430,165.33316 519.42130,165.33316 C 517.64682,165.33316 516.11761,164.98693 514.83366,164.29445 C 513.56412,163.58755 512.51098,162.51278 511.67425,161.07012 M 525.22078,152.60895 C 525.22076,149.68037 524.61483,147.38655 523.40303,145.72748 C 522.20561,144.05402 520.55377,143.21729 518.44751,143.21727 C 516.34122,143.21729 514.68217,144.05402 513.47035,145.72748 C 512.27293,147.38655 511.67424,149.68037 511.67425,152.60895 C 511.67424,155.53755 512.27293,157.83858 513.47035,159.51206 C 514.68217,161.17111 516.34122,162.00063 518.44751,162.00063 C 520.55377,162.00063 522.20561,161.17111 523.40303,159.51206 C 524.61483,157.83858 525.22076,155.53755 525.22078,152.60895 M 488.49799,136.70367 L 482.56867,152.78207 L 494.44894,152.78207 L 488.49799,136.70367 M 486.03104,132.39735 L 490.98657,132.39735 L 503.29963,164.70562 L 498.75527,164.70562 L 495.81225,156.41756 L 481.24865,156.41756 L 478.30563,164.70562 L 473.69634,164.70562 L 486.03104,132.39735 M 447.27412,166.95616 C 446.14883,169.84146 445.05241,171.72413 443.98486,172.60415 C 442.91729,173.48417 441.48905,173.92417 439.70017,173.92418 L 436.51911,173.92418 L 436.51911,170.59165 L 438.85622,170.59165 C 439.95263,170.59164 440.80379,170.33197 441.40972,169.81261 C 442.01562,169.29325 442.68646,168.06700 443.42222,166.13384 L 444.13633,164.31609 L 434.33350,140.46901 L 438.55326,140.46901 L 446.12720,159.42549 L 453.70114,140.46901 L 457.92091,140.46901 L 447.27412,166.95616 M 421.02500,152.52239 C 417.80786,152.52240 415.57897,152.89028 414.33829,153.62602 C 413.09760,154.36179 412.47726,155.61689 412.47727,157.39135 C 412.47726,158.80516 412.93891,159.93043 413.86222,160.76716 C 414.79993,161.58948 416.06946,162.00063 417.67083,162.00063 C 419.87807,162.00063 421.64532,161.22160 422.97258,159.66354 C 424.31423,158.09104 424.98507,156.00641 424.98509,153.40962 L 424.98509,152.52239 L 421.02500,152.52239 M 428.96682,150.87776 L 428.96682,164.70562 L 424.98509,164.70562 L 424.98509,161.02684 C 424.07620,162.49835 422.94371,163.58755 421.58763,164.29445 C 420.23152,164.98693 418.57248,165.33316 416.61047,165.33316 C 414.12910,165.33316 412.15266,164.64069 410.68116,163.25574 C 409.22407,161.85638 408.49553,159.98814 408.49554,157.65103 C 408.49553,154.92442 409.40440,152.86863 411.22215,151.48367 C 413.05432,150.09875 415.78094,149.40627 419.40202,149.40625 L 424.98509,149.40625 L 424.98509,149.01674 C 424.98507,147.18458 424.37916,145.77078 423.16734,144.77533 C 421.96992,143.76550 420.28201,143.26057 418.10362,143.26054 C 416.71866,143.26057 415.36978,143.42647 414.05698,143.75826 C 412.74415,144.09010 411.48183,144.58780 410.27001,145.25140 L 410.27001,141.57263 C 411.72708,141.01002 413.14088,140.59166 414.51141,140.31753 C 415.88192,140.02901 417.21638,139.88476 418.51477,139.88473 C 422.02041,139.88476 424.63883,140.79363 426.37004,142.61135 C 428.10120,144.42911 428.96680,147.18458 428.96682,150.87776 M 380.45033,135.98956 L 380.45033,161.11340 L 385.73044,161.11340 C 390.18822,161.11340 393.44863,160.10355 395.51165,158.08382 C 397.58904,156.06412 398.62775,152.87585 398.62778,148.51902 C 398.62775,144.19107 397.58904,141.02445 395.51165,139.01913 C 393.44863,136.99944 390.18822,135.98958 385.73044,135.98956 L 380.45033,135.98956 M 376.07907,132.39735 L 385.05960,132.39735 C 391.32071,132.39738 395.91556,133.70298 398.84418,136.31416 C 401.77274,138.91096 403.23703,142.97924 403.23706,148.51902 C 403.23703,154.08768 401.76552,158.17761 398.82254,160.78880 C 395.87950,163.40001 391.29185,164.70562 385.05960,164.70562 L 376.07907,164.70562 L 376.07907,132.39735 M 355.26156,151.59188 L 355.26156,153.53946 L 336.95426,153.53946 C 337.12738,156.28052 337.94969,158.37237 339.42121,159.81501 C 340.90713,161.24324 342.97013,161.95736 345.61019,161.95736 C 347.13940,161.95736 348.61811,161.76981 350.04636,161.39472 C 351.48899,161.01963 352.91722,160.45700 354.33105,159.70681 L 354.33105,163.47215 C 352.90279,164.07806 351.43850,164.53971 349.93816,164.85710 C 348.43778,165.17447 346.91578,165.33316 345.37216,165.33316 C 341.50584,165.33316 338.44019,164.20790 336.17523,161.95736 C 333.92468,159.70681 332.79941,156.66282 332.79941,152.82535 C 332.79941,148.85806 333.86698,145.71308 336.00211,143.39039 C 338.15167,141.05330 341.04418,139.88476 344.67968,139.88473 C 347.94006,139.88476 350.51521,140.93790 352.40511,143.04415 C 354.30938,145.13601 355.26154,147.98526 355.26156,151.59188 M 351.27983,150.42332 C 351.25096,148.24493 350.63783,146.50653 349.44044,145.20813 C 348.25745,143.90975 346.68496,143.26057 344.72296,143.26054 C 342.50126,143.26057 340.71958,143.88811 339.37792,145.14321 C 338.05068,146.39834 337.28607,148.16559 337.08410,150.44496 L 351.27983,150.42332 M 326.54551,150.07709 L 326.54551,164.70562 L 322.56378,164.70562 L 322.56378,150.20693 C 322.56375,147.91312 322.11654,146.19636 321.22210,145.05665 C 320.32765,143.91698 318.98598,143.34712 317.19710,143.34710 C 315.04754,143.34712 313.35241,144.03238 312.11174,145.40288 C 310.87105,146.77343 310.25070,148.64166 310.25072,151.00761 L 310.25072,164.70562 L 306.24735,164.70562 L 306.24735,131.03404 L 310.25072,131.03404 L 310.25072,144.23433 C 311.20286,142.77727 312.32091,141.68807 313.60488,140.96672 C 314.90327,140.24542 316.39641,139.88476 318.08433,139.88473 C 320.86864,139.88476 322.97492,140.75035 324.40317,142.48150 C 325.83137,144.19829 326.54548,146.73015 326.54551,150.07709 M 292.93885,133.58754 L 292.93885,140.46901 L 301.14034,140.46901 L 301.14034,143.56350 L 292.93885,143.56350 L 292.93885,156.72052 C 292.93884,158.69696 293.20574,159.96650 293.73953,160.52913 C 294.28773,161.09176 295.39135,161.37308 297.05042,161.37307 L 301.14034,161.37307 L 301.14034,164.70562 L 297.05042,164.70562 C 293.97755,164.70562 291.85685,164.13576 290.68831,162.99607 C 289.51976,161.84194 288.93549,159.75010 288.93549,156.72052 L 288.93549,143.56350 L 286.01411,143.56350 L 286.01411,140.46901 L 288.93549,140.46901 L 288.93549,133.58754 L 292.93885,133.58754 M 271.58035,131.03404 L 271.58035,134.34493 L 267.77174,134.34493 C 266.34349,134.34496 265.34806,134.63350 264.78543,135.21052 C 264.23721,135.78761 263.96311,136.82633 263.96313,138.32666 L 263.96313,140.46901 L 270.52000,140.46901 L 270.52000,143.56350 L 263.96313,143.56350 L 263.96313,164.70562 L 259.95976,164.70562 L 259.95976,143.56350 L 256.15115,143.56350 L 256.15115,140.46901 L 259.95976,140.46901 L 259.95976,138.78110 C 259.95975,136.08336 260.58731,134.12135 261.84241,132.89506 C 263.09752,131.65442 265.08838,131.03407 267.81501,131.03404 L 271.58035,131.03404 M 241.60918,143.26054 C 239.47404,143.26057 237.78614,144.09731 236.54546,145.77076 C 235.30476,147.42984 234.68443,149.70922 234.68444,152.60895 C 234.68443,155.50869 235.29755,157.79530 236.52382,159.46877 C 237.76449,161.12783 239.45961,161.95736 241.60918,161.95736 C 243.72986,161.95736 245.41056,161.12061 246.65126,159.44713 C 247.89192,157.77366 248.51227,155.49426 248.51228,152.60895 C 248.51227,149.73808 247.89192,147.46590 246.65126,145.79240 C 245.41056,144.10452 243.72986,143.26057 241.60918,143.26054 M 241.60918,139.88473 C 245.07153,139.88476 247.79093,141.01002 249.76740,143.26054 C 251.74381,145.51111 252.73203,148.62723 252.73205,152.60895 C 252.73203,156.57626 251.74381,159.69239 249.76740,161.95736 C 247.79093,164.20790 245.07153,165.33316 241.60918,165.33316 C 238.13237,165.33316 235.40575,164.20790 233.42932,161.95736 C 231.46731,159.69239 230.48630,156.57626 230.48630,152.60895 C 230.48630,148.62723 231.46731,145.51111 233.42932,143.26054 C 235.40575,141.01002 238.13237,139.88476 241.60918,139.88473 M 205.92510,144.14778 L 205.92510,131.03404 L 209.90682,131.03404 L 209.90682,164.70562 L 205.92510,164.70562 L 205.92510,161.07012 C 205.08834,162.51278 204.02799,163.58755 202.74405,164.29445 C 201.47449,164.98693 199.94529,165.33316 198.15641,165.33316 C 195.22781,165.33316 192.84021,164.16462 190.99362,161.82751 C 189.16144,159.49042 188.24536,156.41757 188.24536,152.60895 C 188.24536,148.80035 189.16144,145.72750 190.99362,143.39039 C 192.84021,141.05330 195.22781,139.88476 198.15641,139.88473 C 199.94529,139.88476 201.47449,140.23821 202.74405,140.94508 C 204.02799,141.63758 205.08834,142.70515 205.92510,144.14778 M 192.35693,152.60895 C 192.35692,155.53755 192.95562,157.83858 194.15303,159.51206 C 195.36486,161.17111 197.02391,162.00063 199.13019,162.00063 C 201.23646,162.00063 202.89550,161.17111 204.10736,159.51206 C 205.31916,157.83858 205.92509,155.53755 205.92510,152.60895 C 205.92509,149.68037 205.31916,147.38655 204.10736,145.72748 C 202.89550,144.05402 201.23646,143.21729 199.13019,143.21727 C 197.02391,143.21729 195.36486,144.05402 194.15303,145.72748 C 192.95562,147.38655 192.35692,149.68037 192.35693,152.60895 M 186.53581,144.19105 C 186.08857,143.93140 185.59807,143.74386 185.06431,143.62842 C 184.54493,143.49860 183.96787,143.43368 183.33312,143.43366 C 181.08257,143.43368 179.35138,144.16944 178.13956,145.64093 C 176.94215,147.09803 176.34345,149.19709 176.34346,151.93811 L 176.34346,164.70562 L 172.34008,164.70562 L 172.34008,140.46901 L 176.34346,140.46901 L 176.34346,144.23433 C 177.18019,142.76285 178.26939,141.67365 179.61106,140.96672 C 180.95273,140.24542 182.58292,139.88476 184.50167,139.88473 C 184.77576,139.88476 185.07872,139.90640 185.41054,139.94965 C 185.74233,139.97852 186.11021,140.02901 186.51417,140.10113 L 186.53581,144.19105 M 154.79018,143.26054 C 152.65505,143.26057 150.96714,144.09731 149.72647,145.77076 C 148.48577,147.42984 147.86543,149.70922 147.86544,152.60895 C 147.86543,155.50869 148.47856,157.79530 149.70483,159.46877 C 150.94550,161.12783 152.64062,161.95736 154.79018,161.95736 C 156.91087,161.95736 158.59156,161.12061 159.83226,159.44713 C 161.07293,157.77366 161.69327,155.49426 161.69329,152.60895 C 161.69327,149.73808 161.07293,147.46590 159.83226,145.79240 C 158.59156,144.10452 156.91087,143.26057 154.79018,143.26054 M 154.79018,139.88473 C 158.25255,139.88476 160.97194,141.01002 162.94840,143.26054 C 164.92481,145.51111 165.91303,148.62723 165.91305,152.60895 C 165.91303,156.57626 164.92481,159.69239 162.94840,161.95736 C 160.97194,164.20790 158.25255,165.33316 154.79018,165.33316 C 151.31338,165.33316 148.58677,164.20790 146.61033,161.95736 C 144.64831,159.69239 143.66732,156.57626 143.66732,152.60895 C 143.66732,148.62723 144.64831,145.51111 146.61033,143.26054 C 148.58677,141.01002 151.31338,139.88476 154.79018,139.88473 M 101.49129,132.39735 L 105.90581,132.39735 L 112.70072,159.70681 L 119.47399,132.39735 L 124.38622,132.39735 L 131.18114,159.70681 L 137.95440,132.39735 L 142.39056,132.39735 L 134.27563,164.70562 L 128.77911,164.70562 L 121.96256,136.66040 L 115.08110,164.70562 L 109.58459,164.70562 L 101.49129,132.39735"
     id="text2488" />
</svg>
